<svg width="2357" height="1032" viewBox="0 0 2357 1032" fill="none" xmlns="http://www.w3.org/2000/svg">
<rect width="2357" height="1032" fill="#00BF8F"/>
<path d="M1002.6 347.554C1055.39 347.554 1091.87 307.721 1091.87 256.529C1091.87 205.338 1055.55 166.464 1002.6 166.464C949.652 166.464 914.298 201.978 914.298 256.529C914.298 311.08 949.812 347.554 1002.6 347.554Z" fill="white"/>
<path d="M2281.91 798.199C2246.4 821.875 2203.36 839.472 2139.69 839.472C2076.02 839.472 2028.83 813.717 2005 760.125C2172.65 769.724 2303.03 701.895 2303.03 577.436C2303.03 485.611 2231.68 414.743 2120.02 414.743C1970.12 414.743 1889.66 512.647 1856.7 653.103C1839.74 725.251 1808.39 828.434 1752.88 828.434C1710.96 828.434 1710.17 776.923 1710.17 733.73C1710.17 699.016 1710.17 641.265 1710.17 594.553C1710.17 475.853 1656.89 419.542 1550.83 419.542C1457.09 419.542 1407.82 491.53 1383.5 549.28H1380.78L1379.18 433.14H1267.52L1264 490.09C1250.88 620.629 1205.13 828.914 1118.9 828.914C1073.95 828.914 1065.95 763.005 1065.95 710.054V432.66H951.571C886.142 486.571 798.636 515.846 738.006 515.046C608.908 512.967 550.997 430.1 550.997 297.642C550.997 232.693 582.512 193.02 618.026 193.02C653.54 193.02 678.016 222.935 678.016 284.524C678.016 320.039 669.698 358.432 662.819 380.988C684.415 419.062 714.65 434.74 781.679 422.582C803.276 378.429 815.274 325.158 815.274 273.166C815.274 140.548 740.886 70 617.066 70C493.247 70 413.58 172.223 413.58 301.322C413.58 430.42 476.77 533.123 575.473 583.035C534.04 665.901 474.05 753.567 419.019 808.597C318.876 687.498 234.73 513.766 197.936 197.339H53C107.551 716.933 315.516 915.62 369.268 947.774C399.662 966.011 425.738 965.051 453.414 949.534C496.926 924.738 631.144 770.684 703.612 617.589C768.561 617.429 867.105 595.833 926.615 550.72V707.494C926.615 875.626 985.965 957.853 1085.63 957.853C1164.82 957.853 1238.24 881.065 1269.28 785.721H1271.84V933.217H1402.06V783.322C1402.06 617.909 1445.89 540.322 1515.16 540.322C1554.19 540.322 1580.27 565.918 1580.27 631.667V763.325C1580.27 875.146 1630.5 958.013 1718.8 958.013C1801.35 958.013 1856.86 885.225 1882.46 813.717C1936.05 914.82 2034.91 958.013 2122.9 958.013C2188.49 958.013 2241.12 942.975 2281.91 922.499V798.199ZM2105.46 536.483C2143.53 536.483 2169.29 547.521 2171.21 579.675C2174.09 627.987 2126.74 675.02 1990.76 678.219C1996.52 597.752 2042.59 536.483 2105.46 536.483Z" fill="white"/>
</svg>
